<svg id="visual" viewBox="0 0 540 960" width="540" height="960" xmlns="http://www.w3.org/2000/svg" xmlns:xlink="http://www.w3.org/1999/xlink" version="1.1"><g transform="translate(510.3994885847263 -38.87847271086298)"><path d="M375.8 -408.2C505.6 -338.9 642.3 -238.1 624.7 -139.5C607 -40.9 435 55.5 351.4 205.2C267.7 355 272.4 558.1 201.5 607.1C130.5 656.2 -16 551.3 -174 489C-332 426.7 -501.6 407.1 -550.5 319.3C-599.4 231.5 -527.7 75.6 -492.2 -80C-456.7 -235.7 -457.5 -390.9 -381.5 -469.7C-305.5 -548.5 -152.8 -550.7 -14.9 -533C123 -515.2 246 -477.5 375.8 -408.2" fill="#BB004B"></path></g></svg>